<svg width="1440" height="100" viewBox="0 0 1440 100" fill="none" xmlns="http://www.w3.org/2000/svg">
  <path d="M0,50 C30,30 70,70 100,50 C130,30 170,70 200,50 C230,30 270,70 300,50 C330,30 370,70 400,50 C430,30 470,70 500,50 C530,30 570,70 600,50 C630,30 670,70 700,50 C730,30 770,70 800,50 C830,30 870,70 900,50 C930,30 970,70 1000,50 C1030,30 1070,70 1100,50 C1130,30 1170,70 1200,50 C1230,30 1270,70 1300,50 C1330,30 1370,70 1400,50 C1430,30 1470,70 1500,50" stroke="currentColor" stroke-width="2" stroke-linecap="round"/>
</svg>

